<svg width="59" height="66" viewBox="0 0 59 66" fill="none" xmlns="http://www.w3.org/2000/svg">
<path d="M57.8109 22.462H55.475V22.35H29.375V33.15H45.7644C43.3733 39.4369 36.9483 43.95 29.375 43.95C19.7659 43.95 11.975 36.6964 11.975 27.75C11.975 18.8035 19.7659 11.55 29.375 11.55C33.8105 11.55 37.8459 13.1079 40.9184 15.6526L49.1211 8.0157C43.9417 3.52155 37.0136 0.75 29.375 0.75C13.3597 0.75 0.375 12.8392 0.375 27.75C0.375 42.6607 13.3597 54.75 29.375 54.75C45.3902 54.75 58.375 42.6607 58.375 27.75C58.375 25.9396 58.1749 24.1725 57.8109 22.462Z" fill="#FFC107"/>
<path d="M3.71875 15.1828L13.2467 21.6885C15.8248 15.7458 22.0685 11.55 29.375 11.55C33.8106 11.55 37.846 13.1079 40.9185 15.6526L49.1211 8.0157C43.9417 3.52155 37.0136 0.75 29.375 0.75C18.2361 0.75 8.57625 6.60495 3.71875 15.1828Z" fill="#FF3D00"/>
<path d="M29.3758 54.7502C36.8665 54.7502 43.6728 52.0813 48.8189 47.741L39.8434 40.6697C36.9318 42.7231 33.3126 43.9502 29.3758 43.9502C21.8329 43.9502 15.4283 39.4723 13.0155 33.2231L3.55859 40.0069C8.35809 48.7508 18.105 54.7502 29.3758 54.7502Z" fill="#4CAF50"/>
<path d="M57.8109 22.4619H55.475V22.3499H29.375V33.1499H45.7644C44.616 36.1698 42.5294 38.7739 39.8382 40.6707L39.8426 40.668L48.818 47.7393C48.1829 48.2766 58.375 41.2498 58.375 27.7499C58.375 25.9395 58.1749 24.1724 57.8109 22.4619Z" fill="#1976D2"/>
</svg>
